<!-- icon666.com - MILLIONS vector ICONS FREE --><svg id="Layer_1" enable-background="new 0 0 128 128" viewBox="0 0 128 128" xmlns="http://www.w3.org/2000/svg"><g><path d="m115.65 106.661-17.643-28.546c.826-.525 1.774-.878 2.798-.994 3.083-.348 5.694-2.242 6.984-5.065 1.289-2.823 1.01-6.036-.746-8.595-1.951-2.842-1.386-6.774 1.287-8.952 2.406-1.96 3.579-4.965 3.137-8.037s-2.414-5.624-5.274-6.827c-3.178-1.336-4.828-4.95-3.758-8.227.965-2.949.327-6.111-1.705-8.457-2.031-2.346-5.07-3.429-8.127-2.892-3.401.588-6.737-1.554-7.608-4.89-.784-3.003-3.03-5.318-6.008-6.193-2.979-.875-6.12-.141-8.401 1.961-2.536 2.335-6.508 2.335-9.044.001-2.283-2.103-5.423-2.836-8.401-1.962-2.977.874-5.224 3.189-6.008 6.193-.871 3.336-4.222 5.479-7.608 4.89-3.059-.536-6.095.547-8.127 2.892-2.032 2.346-2.67 5.507-1.705 8.457 1.071 3.277-.58 6.891-3.758 8.227-2.86 1.203-4.833 3.755-5.274 6.827-.442 3.072.732 6.077 3.137 8.037 2.673 2.178 3.238 6.11 1.287 8.952-1.756 2.559-2.035 5.772-.746 8.595s3.9 4.717 6.984 5.065c1.024.116 1.972.469 2.798.994l-17.643 28.545c-.19.308-.208.691-.046 1.015s.48.539.84.571l15.962 1.416 2.874 4.843s5.035 8.485 5.035 8.485c.186.313.523.507.887.51h.009c.361 0 .696-.187.886-.494l16.684-26.995c1.64 1.807 3.944 2.86 6.456 2.86s4.816-1.054 6.456-2.86l16.684 26.995c.19.307.525.494.886.494h.009c.364-.004.701-.197.887-.51l7.909-13.328 15.962-1.416c.359-.032.678-.248.84-.571s.142-.707-.048-1.014z" fill="#e6e7e8"></path><g><g><g><path d="m92.442 73.668c-1.76 1.472-2.844 3.702-2.769 6.152.177 5.82-5.91 9.731-11.13 7.153-3.601-1.779-7.964-.497-10.032 2.946-.02.034-.045.062-.066.095l17.477 28.277 8.182-13.787 16.493-1.463z" fill="#0089ef"></path><path d="m78.543 86.973c-.687-.339-1.402-.566-2.124-.688l14.538 23.521 3.146-5.302 6.089-.54-11.977-19.38c-2.092 2.869-6.086 4.16-9.672 2.389z" fill="#d4fbff"></path></g><g><path d="m55.28 89.919c-2.068-3.443-6.431-4.724-10.032-2.946-5.22 2.578-11.307-1.333-11.13-7.153.074-2.45-1.009-4.68-2.769-6.152l-18.154 29.373 16.493 1.463 8.182 13.787 17.477-28.277c-.022-.034-.047-.062-.067-.095z" fill="#0089ef"></path><path d="m45.247 86.973c-3.586 1.771-7.58.48-9.672-2.388l-11.978 19.379 6.09.54 3.146 5.302 14.538-23.521c-.722.122-1.436.349-2.124.688z" fill="#d4fbff"></path></g></g><path d="m67.123 7.547c4.283-3.945 11.224-1.906 12.695 3.727 1.014 3.886 4.84 6.345 8.796 5.653 5.735-1.003 10.473 4.465 8.664 9.999-1.248 3.818.641 7.954 4.344 9.511 5.367 2.257 6.397 9.418 1.883 13.096-3.114 2.537-3.761 7.038-1.488 10.349 3.295 4.8.29 11.381-5.496 12.035-3.991.451-6.969 3.888-6.847 7.902.177 5.82-5.91 9.731-11.13 7.153-3.601-1.778-7.964-.497-10.032 2.946-2.998 4.991-10.233 4.991-13.231 0-2.068-3.443-6.431-4.724-10.032-2.946-5.221 2.578-11.307-1.333-11.13-7.153.122-4.015-2.856-7.451-6.847-7.902-5.786-.653-8.791-7.234-5.496-12.035 2.273-3.311 1.626-7.813-1.488-10.349-4.514-3.678-3.484-10.839 1.883-13.096 3.702-1.557 5.591-5.693 4.344-9.511-1.809-5.534 2.929-11.002 8.664-9.999 3.956.692 7.782-1.767 8.796-5.653 1.47-5.634 8.412-7.672 12.695-3.727 2.951 2.721 7.499 2.721 10.453 0z" fill="#6dc9f7"></path><circle cx="61.895" cy="49.582" fill="#ffd7e5" r="32.302"></circle><path d="m61.895 20.406c17.316 0 31.447 13.625 32.263 30.739.025-.518.04-1.039.04-1.563 0-17.84-14.462-32.302-32.302-32.302s-32.303 14.462-32.303 32.302c0 .524.015 1.045.04 1.563.815-17.114 14.946-30.739 32.262-30.739z" fill="#fff"></path><g fill="#3a2c60"><path d="m111.446 102.515-17.664-28.582c.84-.541 1.806-.903 2.851-1.021 3.069-.347 5.667-2.231 6.95-5.041s1.006-6.007-.742-8.554c-1.963-2.86-1.395-6.817 1.296-9.008 2.394-1.951 3.561-4.941 3.121-7.998s-2.401-5.598-5.249-6.795c-3.197-1.344-4.858-4.98-3.78-8.278.96-2.936.325-6.082-1.697-8.417-2.023-2.334-5.052-3.412-8.09-2.878-3.419.597-6.78-1.563-7.656-4.92-.78-2.989-3.015-5.292-5.979-6.163-2.967-.872-6.091-.141-8.361 1.952-2.55 2.35-6.549 2.35-9.101 0-2.271-2.092-5.395-2.823-8.361-1.952-2.964.87-5.198 3.174-5.979 6.163-.876 3.357-4.237 5.517-7.656 4.92-3.045-.534-6.066.543-8.09 2.878-2.022 2.334-2.657 5.481-1.697 8.417 1.078 3.297-.583 6.934-3.78 8.279-2.848 1.197-4.81 3.737-5.249 6.795-.439 3.057.728 6.047 3.122 7.998 2.689 2.191 3.258 6.148 1.295 9.008-1.748 2.546-2.025 5.744-.742 8.554s3.881 4.694 6.95 5.041c1.045.118 2.011.481 2.851 1.021l-17.665 28.582c-.183.295-.199.664-.044.974.156.31.461.518.807.548l10.402.923h.001l5.578.495 2.885 4.862s.001.001.001.001l5.034 8.484c.179.301.502.486.852.49h.009c.347 0 .668-.179.851-.474l16.714-27.042c1.634 1.823 3.944 2.887 6.462 2.887 2.519 0 4.829-1.064 6.463-2.887l16.714 27.042c.183.295.504.474.851.474h.009c.35-.003.673-.189.852-.49l5.034-8.484s.001-.001.001-.001l2.885-4.862 5.578-.495h.001l10.402-.923c.346-.031.65-.238.807-.548.152-.312.136-.68-.047-.975zm-79.915-27.242c1.033 1.228 1.638 2.817 1.586 4.517-.053 1.736.413 3.385 1.279 4.8l-11.324 18.323-8.174-.725zm13.324 12.944c.061-.017.121-.033.181-.057l-12.186 19.715-2.304-3.882c-.164-.277-.451-.458-.772-.486l-4.474-.397 10.41-16.843c.056.055.12.097.177.15l.001-.005c.38.353.781.686 1.229.974 2.343 1.506 5.174 1.789 7.738.831zm-6.969 28.144-3.884-6.544 13.964-22.593c2.26-.226 4.55.706 5.985 2.537l-.011.013c.06.076.127.144.187.22.01.014.019.029.028.042zm24.008-23.699c-2.38 0-4.532-1.218-5.758-3.258-1.617-2.692-4.527-4.218-7.511-4.218-1.293 0-2.601.287-3.821.89-2.136 1.054-4.604.914-6.606-.372-2.002-1.287-3.153-3.475-3.081-5.854.137-4.5-3.262-8.421-7.735-8.926-2.365-.267-4.367-1.719-5.355-3.884-.989-2.165-.775-4.629.571-6.591 2.548-3.711 1.811-8.847-1.68-11.691-1.846-1.503-2.745-3.807-2.406-6.163s1.851-4.313 4.045-5.236c4.149-1.745 6.305-6.464 4.905-10.743-.739-2.262-.25-4.687 1.309-6.485 1.559-1.799 3.889-2.626 6.234-2.218 4.43.777 8.798-2.029 9.936-6.385.601-2.303 2.322-4.078 4.606-4.749 2.285-.671 4.693-.108 6.442 1.504 3.314 3.052 8.501 3.051 11.812 0 1.75-1.612 4.157-2.178 6.442-1.504 2.284.67 4.006 2.446 4.606 4.749 1.138 4.356 5.504 7.161 9.936 6.385 2.348-.409 4.676.42 6.234 2.218s2.048 4.223 1.309 6.485c-1.399 4.279.756 8.998 4.905 10.744 2.194.922 3.706 2.88 4.045 5.236.339 2.355-.561 4.66-2.406 6.163-3.49 2.844-4.228 7.979-1.68 11.691 1.347 1.962 1.561 4.426.571 6.591-.988 2.165-2.99 3.617-5.355 3.884-4.474.505-7.872 4.426-7.735 8.926.072 2.379-1.079 4.567-3.081 5.854-2.003 1.286-4.471 1.426-6.606.372-4.036-1.994-9.015-.53-11.332 3.327-1.226 2.04-3.379 3.258-5.76 3.258zm32.122 10.846c-.321.028-.608.209-.772.486l-2.304 3.882-12.186-19.716c.06.024.121.038.181.057 2.564.958 5.396.675 7.738-.83.495-.318.936-.691 1.348-1.088l.005.013c.017-.016.036-.029.053-.045l10.41 16.843zm-8.112 12.853-16.27-26.325c.009-.013.018-.027.027-.04.077-.1.165-.189.244-.287l-.01-.017c1.438-1.785 3.696-2.693 5.928-2.469l13.965 22.594zm14.814-13.448-11.324-18.323c.866-1.416 1.331-3.065 1.279-4.8-.052-1.699.553-3.289 1.586-4.517l16.633 26.915z"></path><path d="m81.005 74.376c-1.5 1.158-3.111 2.184-4.79 3.049-.491.253-.684.856-.431 1.347.178.345.527.542.89.542.154 0 .311-.036.457-.111 1.786-.92 3.501-2.011 5.097-3.243.437-.337.518-.965.181-1.402-.338-.438-.965-.521-1.404-.182z"></path><path d="m73.791 79.639c-.187-.519-.762-.789-1.279-.602-3.397 1.225-6.97 1.846-10.616 1.846-17.261 0-31.303-14.042-31.303-31.302s14.042-31.301 31.302-31.301 31.302 14.042 31.302 31.302c0 8.383-3.271 16.259-9.211 22.176-.391.39-.393 1.023-.002 1.414.389.391 1.021.393 1.414.003 6.318-6.295 9.799-14.674 9.799-23.593 0-18.363-14.939-33.302-33.302-33.302s-33.303 14.939-33.303 33.302 14.939 33.302 33.303 33.302c3.879 0 7.679-.661 11.294-1.964.52-.188.789-.761.602-1.281z"></path></g><circle cx="61.895" cy="49.582" fill="#fa759e" r="25.008"></circle><g><path d="m57.91 59.376h11.471c1.143 0 2.014.234 2.614.703s.901 1.106.901 1.912c0 .718-.238 1.326-.715 1.824-.476.498-1.197.747-2.164.747h-16.171c-1.099 0-1.955-.304-2.57-.912-.615-.607-.924-1.322-.924-2.142 0-.527.198-1.227.594-2.098s.827-1.557 1.297-2.055c1.947-2.021 3.705-3.753 5.273-5.196 1.566-1.443 2.688-2.392 3.361-2.846 1.201-.85 2.201-1.703 2.999-2.56.799-.857 1.406-1.736 1.824-2.637.417-.901.626-1.784.626-2.648 0-.938-.224-1.776-.67-2.516-.447-.739-1.055-1.314-1.824-1.725-.769-.41-1.607-.615-2.516-.615-1.919 0-3.428.842-4.526 2.527-.146.22-.392.82-.736 1.802-.344.981-.732 1.736-1.164 2.263-.433.527-1.065.791-1.901.791-.732 0-1.34-.242-1.823-.725s-.726-1.143-.726-1.978c0-1.011.228-2.065.682-3.164s1.132-2.095 2.032-2.988c.901-.894 2.044-1.615 3.428-2.165 1.385-.549 3.007-.824 4.867-.824 2.241 0 4.153.352 5.735 1.055 1.024.469 1.926 1.113 2.702 1.934s1.381 1.769 1.812 2.845c.433 1.077.648 2.194.648 3.351 0 1.816-.45 3.468-1.352 4.955-.9 1.487-1.82 2.652-2.757 3.494-.938.842-2.509 2.164-4.714 3.966-2.204 1.802-3.717 3.201-4.537 4.197-.35.396-.71.872-1.076 1.428z" fill="#fff"></path></g></g></g></svg>